<mxfile host="app.diagrams.net" modified="2020-11-23T15:31:01.893Z" agent="5.0 (Windows NT 10.0; Win64; x64) AppleWebKit/537.36 (KHTML, like Gecko) Chrome/87.0.4280.66 Safari/537.36" etag="dmhQsl-zrx5YMZmua6na" version="13.10.1" type="github">
  <diagram id="C5RBs43oDa-KdzZeNtuy" name="Page-1">
    <mxGraphModel dx="2062" dy="772" grid="1" gridSize="10" guides="1" tooltips="1" connect="1" arrows="1" fold="1" page="1" pageScale="1" pageWidth="827" pageHeight="1169" math="0" shadow="0">
      <root>
        <mxCell id="WIyWlLk6GJQsqaUBKTNV-0" />
        <mxCell id="WIyWlLk6GJQsqaUBKTNV-1" parent="WIyWlLk6GJQsqaUBKTNV-0" />
        <mxCell id="zkfFHV4jXpPFQw0GAbJ--0" value="Render Interface&#xa;" style="swimlane;fontStyle=3;align=center;verticalAlign=top;childLayout=stackLayout;horizontal=1;startSize=26;horizontalStack=0;resizeParent=1;resizeLast=0;collapsible=1;marginBottom=0;rounded=0;shadow=0;strokeWidth=1;" parent="WIyWlLk6GJQsqaUBKTNV-1" vertex="1">
          <mxGeometry x="220" y="120" width="160" height="50" as="geometry">
            <mxRectangle x="230" y="140" width="160" height="26" as="alternateBounds" />
          </mxGeometry>
        </mxCell>
        <mxCell id="itCn-1AAcK65G8zzjP0P-0" value="void Render()" style="text;html=1;strokeColor=none;fillColor=none;align=center;verticalAlign=middle;whiteSpace=wrap;rounded=0;" vertex="1" parent="zkfFHV4jXpPFQw0GAbJ--0">
          <mxGeometry y="26" width="160" height="24" as="geometry" />
        </mxCell>
        <mxCell id="itCn-1AAcK65G8zzjP0P-1" style="edgeStyle=orthogonalEdgeStyle;rounded=0;orthogonalLoop=1;jettySize=auto;html=1;exitX=0.5;exitY=1;exitDx=0;exitDy=0;" edge="1" parent="zkfFHV4jXpPFQw0GAbJ--0" source="itCn-1AAcK65G8zzjP0P-0" target="itCn-1AAcK65G8zzjP0P-0">
          <mxGeometry relative="1" as="geometry" />
        </mxCell>
        <mxCell id="itCn-1AAcK65G8zzjP0P-4" value="" style="rounded=0;whiteSpace=wrap;html=1;" vertex="1" parent="WIyWlLk6GJQsqaUBKTNV-1">
          <mxGeometry x="40" y="220" width="180" height="60" as="geometry" />
        </mxCell>
        <mxCell id="itCn-1AAcK65G8zzjP0P-5" value="" style="endArrow=none;html=1;exitX=0;exitY=0.5;exitDx=0;exitDy=0;entryX=1;entryY=0.5;entryDx=0;entryDy=0;" edge="1" parent="WIyWlLk6GJQsqaUBKTNV-1" source="itCn-1AAcK65G8zzjP0P-4" target="itCn-1AAcK65G8zzjP0P-4">
          <mxGeometry width="50" height="50" relative="1" as="geometry">
            <mxPoint x="40" y="270" as="sourcePoint" />
            <mxPoint x="90" y="220" as="targetPoint" />
            <Array as="points">
              <mxPoint x="120" y="250" />
            </Array>
          </mxGeometry>
        </mxCell>
        <mxCell id="itCn-1AAcK65G8zzjP0P-6" value="&lt;b&gt;Widget&lt;/b&gt;" style="text;html=1;strokeColor=none;fillColor=none;align=center;verticalAlign=middle;whiteSpace=wrap;rounded=0;" vertex="1" parent="WIyWlLk6GJQsqaUBKTNV-1">
          <mxGeometry x="40" y="220" width="180" height="30" as="geometry" />
        </mxCell>
        <mxCell id="itCn-1AAcK65G8zzjP0P-7" value="vector&amp;lt;widget_component&amp;gt;" style="text;html=1;strokeColor=none;fillColor=none;align=center;verticalAlign=middle;whiteSpace=wrap;rounded=0;" vertex="1" parent="WIyWlLk6GJQsqaUBKTNV-1">
          <mxGeometry x="40" y="250" width="180" height="30" as="geometry" />
        </mxCell>
        <mxCell id="itCn-1AAcK65G8zzjP0P-8" value="" style="rounded=0;whiteSpace=wrap;html=1;" vertex="1" parent="WIyWlLk6GJQsqaUBKTNV-1">
          <mxGeometry x="40" y="280" width="180" height="30" as="geometry" />
        </mxCell>
        <mxCell id="itCn-1AAcK65G8zzjP0P-9" value="Window&lt;br&gt;" style="text;html=1;strokeColor=none;fillColor=none;align=center;verticalAlign=middle;whiteSpace=wrap;rounded=0;" vertex="1" parent="WIyWlLk6GJQsqaUBKTNV-1">
          <mxGeometry x="40" y="280" width="180" height="30" as="geometry" />
        </mxCell>
        <mxCell id="itCn-1AAcK65G8zzjP0P-10" style="edgeStyle=orthogonalEdgeStyle;rounded=0;orthogonalLoop=1;jettySize=auto;html=1;exitX=0.5;exitY=1;exitDx=0;exitDy=0;" edge="1" parent="WIyWlLk6GJQsqaUBKTNV-1" source="itCn-1AAcK65G8zzjP0P-0" target="itCn-1AAcK65G8zzjP0P-6">
          <mxGeometry relative="1" as="geometry">
            <mxPoint x="490" y="195" as="sourcePoint" />
          </mxGeometry>
        </mxCell>
        <mxCell id="itCn-1AAcK65G8zzjP0P-11" value="" style="rounded=0;whiteSpace=wrap;html=1;" vertex="1" parent="WIyWlLk6GJQsqaUBKTNV-1">
          <mxGeometry x="380" y="220" width="180" height="60" as="geometry" />
        </mxCell>
        <mxCell id="itCn-1AAcK65G8zzjP0P-12" value="" style="endArrow=none;html=1;exitX=0;exitY=0.5;exitDx=0;exitDy=0;entryX=1;entryY=0.5;entryDx=0;entryDy=0;" edge="1" parent="WIyWlLk6GJQsqaUBKTNV-1" source="itCn-1AAcK65G8zzjP0P-11" target="itCn-1AAcK65G8zzjP0P-11">
          <mxGeometry width="50" height="50" relative="1" as="geometry">
            <mxPoint x="380" y="270" as="sourcePoint" />
            <mxPoint x="430" y="220" as="targetPoint" />
            <Array as="points">
              <mxPoint x="460" y="250" />
            </Array>
          </mxGeometry>
        </mxCell>
        <mxCell id="itCn-1AAcK65G8zzjP0P-13" value="&lt;b&gt;Widget component&lt;/b&gt;" style="text;html=1;strokeColor=none;fillColor=none;align=center;verticalAlign=middle;whiteSpace=wrap;rounded=0;" vertex="1" parent="WIyWlLk6GJQsqaUBKTNV-1">
          <mxGeometry x="380" y="220" width="180" height="30" as="geometry" />
        </mxCell>
        <mxCell id="itCn-1AAcK65G8zzjP0P-14" value="vec2d pos" style="text;html=1;strokeColor=none;fillColor=none;align=center;verticalAlign=middle;whiteSpace=wrap;rounded=0;" vertex="1" parent="WIyWlLk6GJQsqaUBKTNV-1">
          <mxGeometry x="380" y="250" width="180" height="30" as="geometry" />
        </mxCell>
        <mxCell id="itCn-1AAcK65G8zzjP0P-17" value="" style="rounded=0;whiteSpace=wrap;html=1;" vertex="1" parent="WIyWlLk6GJQsqaUBKTNV-1">
          <mxGeometry x="380" y="280" width="180" height="30" as="geometry" />
        </mxCell>
        <mxCell id="itCn-1AAcK65G8zzjP0P-26" style="edgeStyle=orthogonalEdgeStyle;rounded=0;orthogonalLoop=1;jettySize=auto;html=1;exitX=0.5;exitY=1;exitDx=0;exitDy=0;" edge="1" parent="WIyWlLk6GJQsqaUBKTNV-1" source="itCn-1AAcK65G8zzjP0P-18" target="itCn-1AAcK65G8zzjP0P-23">
          <mxGeometry relative="1" as="geometry" />
        </mxCell>
        <mxCell id="itCn-1AAcK65G8zzjP0P-31" style="edgeStyle=orthogonalEdgeStyle;rounded=0;orthogonalLoop=1;jettySize=auto;html=1;exitX=0.5;exitY=1;exitDx=0;exitDy=0;" edge="1" parent="WIyWlLk6GJQsqaUBKTNV-1" source="itCn-1AAcK65G8zzjP0P-18" target="itCn-1AAcK65G8zzjP0P-27">
          <mxGeometry relative="1" as="geometry" />
        </mxCell>
        <mxCell id="itCn-1AAcK65G8zzjP0P-18" value="Decorator" style="text;html=1;strokeColor=none;fillColor=none;align=center;verticalAlign=middle;whiteSpace=wrap;rounded=0;" vertex="1" parent="WIyWlLk6GJQsqaUBKTNV-1">
          <mxGeometry x="380" y="280" width="180" height="30" as="geometry" />
        </mxCell>
        <mxCell id="itCn-1AAcK65G8zzjP0P-19" style="edgeStyle=orthogonalEdgeStyle;rounded=0;orthogonalLoop=1;jettySize=auto;html=1;exitX=0.5;exitY=1;exitDx=0;exitDy=0;" edge="1" parent="WIyWlLk6GJQsqaUBKTNV-1" source="itCn-1AAcK65G8zzjP0P-0" target="itCn-1AAcK65G8zzjP0P-13">
          <mxGeometry relative="1" as="geometry" />
        </mxCell>
        <mxCell id="itCn-1AAcK65G8zzjP0P-20" value="Cliked Interface&#xa;" style="swimlane;fontStyle=3;align=center;verticalAlign=top;childLayout=stackLayout;horizontal=1;startSize=26;horizontalStack=0;resizeParent=1;resizeLast=0;collapsible=1;marginBottom=0;rounded=0;shadow=0;strokeWidth=1;" vertex="1" parent="WIyWlLk6GJQsqaUBKTNV-1">
          <mxGeometry x="660" y="119" width="160" height="50" as="geometry">
            <mxRectangle x="230" y="140" width="160" height="26" as="alternateBounds" />
          </mxGeometry>
        </mxCell>
        <mxCell id="itCn-1AAcK65G8zzjP0P-21" value="void OnCliked()" style="text;html=1;strokeColor=none;fillColor=none;align=center;verticalAlign=middle;whiteSpace=wrap;rounded=0;" vertex="1" parent="itCn-1AAcK65G8zzjP0P-20">
          <mxGeometry y="26" width="160" height="24" as="geometry" />
        </mxCell>
        <mxCell id="itCn-1AAcK65G8zzjP0P-22" style="edgeStyle=orthogonalEdgeStyle;rounded=0;orthogonalLoop=1;jettySize=auto;html=1;exitX=0.5;exitY=1;exitDx=0;exitDy=0;" edge="1" parent="itCn-1AAcK65G8zzjP0P-20" source="itCn-1AAcK65G8zzjP0P-21" target="itCn-1AAcK65G8zzjP0P-21">
          <mxGeometry relative="1" as="geometry" />
        </mxCell>
        <mxCell id="itCn-1AAcK65G8zzjP0P-23" value="Text field" style="swimlane;fontStyle=3;align=center;verticalAlign=top;childLayout=stackLayout;horizontal=1;startSize=26;horizontalStack=0;resizeParent=1;resizeLast=0;collapsible=1;marginBottom=0;rounded=0;shadow=0;strokeWidth=1;" vertex="1" parent="WIyWlLk6GJQsqaUBKTNV-1">
          <mxGeometry x="220" y="390" width="160" height="50" as="geometry">
            <mxRectangle x="230" y="140" width="160" height="26" as="alternateBounds" />
          </mxGeometry>
        </mxCell>
        <mxCell id="itCn-1AAcK65G8zzjP0P-24" value="vector&amp;lt;*string&amp;gt;" style="text;html=1;strokeColor=none;fillColor=none;align=center;verticalAlign=middle;whiteSpace=wrap;rounded=0;" vertex="1" parent="itCn-1AAcK65G8zzjP0P-23">
          <mxGeometry y="26" width="160" height="24" as="geometry" />
        </mxCell>
        <mxCell id="itCn-1AAcK65G8zzjP0P-25" style="edgeStyle=orthogonalEdgeStyle;rounded=0;orthogonalLoop=1;jettySize=auto;html=1;exitX=0.5;exitY=1;exitDx=0;exitDy=0;" edge="1" parent="itCn-1AAcK65G8zzjP0P-23" source="itCn-1AAcK65G8zzjP0P-24" target="itCn-1AAcK65G8zzjP0P-24">
          <mxGeometry relative="1" as="geometry" />
        </mxCell>
        <mxCell id="itCn-1AAcK65G8zzjP0P-27" value="Button" style="swimlane;fontStyle=3;align=center;verticalAlign=top;childLayout=stackLayout;horizontal=1;startSize=26;horizontalStack=0;resizeParent=1;resizeLast=0;collapsible=1;marginBottom=0;rounded=0;shadow=0;strokeWidth=1;" vertex="1" parent="WIyWlLk6GJQsqaUBKTNV-1">
          <mxGeometry x="560" y="390" width="160" height="74" as="geometry">
            <mxRectangle x="230" y="140" width="160" height="26" as="alternateBounds" />
          </mxGeometry>
        </mxCell>
        <mxCell id="itCn-1AAcK65G8zzjP0P-28" value="&amp;amp;DynamicClikedFunction()" style="text;html=1;strokeColor=none;fillColor=none;align=center;verticalAlign=middle;whiteSpace=wrap;rounded=0;" vertex="1" parent="itCn-1AAcK65G8zzjP0P-27">
          <mxGeometry y="26" width="160" height="24" as="geometry" />
        </mxCell>
        <mxCell id="itCn-1AAcK65G8zzjP0P-30" value="void AddDynamic(&amp;amp;void f)" style="text;html=1;strokeColor=none;fillColor=none;align=center;verticalAlign=middle;whiteSpace=wrap;rounded=0;" vertex="1" parent="itCn-1AAcK65G8zzjP0P-27">
          <mxGeometry y="50" width="160" height="24" as="geometry" />
        </mxCell>
        <mxCell id="itCn-1AAcK65G8zzjP0P-29" style="edgeStyle=orthogonalEdgeStyle;rounded=0;orthogonalLoop=1;jettySize=auto;html=1;exitX=0.5;exitY=1;exitDx=0;exitDy=0;" edge="1" parent="itCn-1AAcK65G8zzjP0P-27" source="itCn-1AAcK65G8zzjP0P-28" target="itCn-1AAcK65G8zzjP0P-28">
          <mxGeometry relative="1" as="geometry" />
        </mxCell>
        <mxCell id="itCn-1AAcK65G8zzjP0P-41" value="" style="endArrow=none;html=1;entryX=0;entryY=0;entryDx=0;entryDy=0;exitX=1;exitY=0;exitDx=0;exitDy=0;" edge="1" parent="itCn-1AAcK65G8zzjP0P-27" source="itCn-1AAcK65G8zzjP0P-30" target="itCn-1AAcK65G8zzjP0P-30">
          <mxGeometry width="50" height="50" relative="1" as="geometry">
            <mxPoint x="-20" y="110" as="sourcePoint" />
            <mxPoint x="30" y="60" as="targetPoint" />
          </mxGeometry>
        </mxCell>
        <mxCell id="itCn-1AAcK65G8zzjP0P-32" style="edgeStyle=orthogonalEdgeStyle;rounded=0;orthogonalLoop=1;jettySize=auto;html=1;exitX=0.5;exitY=1;exitDx=0;exitDy=0;entryX=0.994;entryY=0.149;entryDx=0;entryDy=0;entryPerimeter=0;" edge="1" parent="WIyWlLk6GJQsqaUBKTNV-1" source="itCn-1AAcK65G8zzjP0P-21" target="itCn-1AAcK65G8zzjP0P-27">
          <mxGeometry relative="1" as="geometry" />
        </mxCell>
        <mxCell id="itCn-1AAcK65G8zzjP0P-33" value="Text box(input)" style="swimlane;fontStyle=3;align=center;verticalAlign=top;childLayout=stackLayout;horizontal=1;startSize=30;horizontalStack=0;resizeParent=1;resizeLast=0;collapsible=1;marginBottom=0;rounded=0;shadow=0;strokeWidth=1;" vertex="1" parent="WIyWlLk6GJQsqaUBKTNV-1">
          <mxGeometry x="390" y="570" width="160" height="30" as="geometry">
            <mxRectangle x="390" y="570" width="160" height="26" as="alternateBounds" />
          </mxGeometry>
        </mxCell>
        <mxCell id="itCn-1AAcK65G8zzjP0P-35" style="edgeStyle=orthogonalEdgeStyle;rounded=0;orthogonalLoop=1;jettySize=auto;html=1;exitX=0.5;exitY=1;exitDx=0;exitDy=0;" edge="1" parent="itCn-1AAcK65G8zzjP0P-33">
          <mxGeometry relative="1" as="geometry">
            <mxPoint x="80" y="50" as="sourcePoint" />
            <mxPoint x="80" y="50" as="targetPoint" />
          </mxGeometry>
        </mxCell>
        <mxCell id="itCn-1AAcK65G8zzjP0P-36" style="edgeStyle=orthogonalEdgeStyle;rounded=0;orthogonalLoop=1;jettySize=auto;html=1;exitX=0.5;exitY=1;exitDx=0;exitDy=0;entryX=0.5;entryY=0;entryDx=0;entryDy=0;" edge="1" parent="WIyWlLk6GJQsqaUBKTNV-1" source="itCn-1AAcK65G8zzjP0P-24" target="itCn-1AAcK65G8zzjP0P-33">
          <mxGeometry relative="1" as="geometry" />
        </mxCell>
        <mxCell id="itCn-1AAcK65G8zzjP0P-37" style="edgeStyle=orthogonalEdgeStyle;rounded=0;orthogonalLoop=1;jettySize=auto;html=1;exitX=0.5;exitY=1;exitDx=0;exitDy=0;entryX=1;entryY=0.5;entryDx=0;entryDy=0;" edge="1" parent="WIyWlLk6GJQsqaUBKTNV-1" source="itCn-1AAcK65G8zzjP0P-21" target="itCn-1AAcK65G8zzjP0P-33">
          <mxGeometry relative="1" as="geometry" />
        </mxCell>
        <mxCell id="itCn-1AAcK65G8zzjP0P-38" value="" style="endArrow=none;html=1;entryX=0.5;entryY=1;entryDx=0;entryDy=0;" edge="1" parent="WIyWlLk6GJQsqaUBKTNV-1" target="itCn-1AAcK65G8zzjP0P-33">
          <mxGeometry width="50" height="50" relative="1" as="geometry">
            <mxPoint x="470" y="650" as="sourcePoint" />
            <mxPoint x="850" y="540" as="targetPoint" />
            <Array as="points" />
          </mxGeometry>
        </mxCell>
        <mxCell id="itCn-1AAcK65G8zzjP0P-40" value="need global struct&lt;br&gt;&amp;amp;text box&lt;br&gt;bool is input" style="rounded=0;whiteSpace=wrap;html=1;" vertex="1" parent="WIyWlLk6GJQsqaUBKTNV-1">
          <mxGeometry x="390" y="650" width="160" height="60" as="geometry" />
        </mxCell>
      </root>
    </mxGraphModel>
  </diagram>
</mxfile>
